# Blender v2.69 (sub 0) OBJ File: 'untitled.blend'
# www.blender.org
v -7.078638 -0.000000 1.542035
v -7.078638 -0.000000 0.875392
v -6.225171 -0.000000 0.875392
v -6.225171 -0.000000 1.542035
v -7.078638 5.517055 1.542035
v -7.078638 5.517055 0.875392
v -6.225171 5.517055 0.875392
v -6.225171 5.517055 1.542035
v -7.078638 -0.000000 -1.096814
v -7.078638 -0.000000 -1.763456
v -6.225171 -0.000000 -1.763456
v -6.225171 -0.000000 -1.096814
v -7.078638 4.197590 -1.096814
v -7.078638 4.197590 -1.763456
v -6.225171 4.197590 -1.763456
v -6.225171 4.197590 -1.096814
v 1.057609 0.000000 -5.214661
v 1.057609 0.000000 -7.272227
v 6.682306 0.000000 -7.272227
v 6.682306 0.000000 -5.214661
v 1.057609 2.057566 -5.214661
v 1.057609 2.057566 -7.272227
v 6.682306 2.057566 -7.272227
v 6.682306 2.057566 -5.214661
v 4.101622 -0.000000 7.347367
v 4.101622 0.000000 3.346147
v 8.102840 0.000000 3.346147
v 8.102840 0.000000 7.347367
v 4.101622 4.001219 7.347367
v 4.101622 4.001219 3.346147
v 8.102840 4.001219 3.346147
v 8.102840 4.001219 7.347367
v 2.869957 0.000000 -1.672156
v 2.869957 0.000000 -3.672156
v 4.869957 0.000000 -3.672156
v 4.869957 0.000000 -1.672156
v 2.869957 2.000000 -1.672156
v 2.869957 2.000000 -3.672156
v 4.869957 2.000000 -3.672156
v 4.869957 2.000000 -1.672156
v -7.067104 0.000000 7.204751
v -7.067104 0.000000 2.795250
v -2.932895 0.000000 2.795250
v -2.932895 0.000000 7.204751
v -7.067104 13.555786 7.204751
v -7.067104 13.555786 2.795250
v -2.932895 13.555786 2.795250
v -2.932895 13.555786 7.204751
v -5.418676 -0.000000 2.487801
v -5.418676 -0.000000 1.003768
v -3.934643 -0.000000 1.003768
v -3.934643 -0.000000 2.487801
v -5.418676 1.484033 2.487801
v -5.418676 1.484033 1.003768
v -3.934643 1.484033 1.003768
v -3.934643 1.484033 2.487801
v 0.429720 0.000000 6.301230
v 0.429720 0.000000 4.817197
v 1.913753 0.000000 4.817197
v 1.913753 0.000000 6.301230
v 0.429720 2.986431 6.301230
v 0.429720 2.986431 4.817197
v 1.913753 2.986431 4.817197
v 1.913753 2.986431 6.301230
v -6.323657 0.000000 -3.471312
v -6.323657 0.000000 -6.590563
v -1.523704 0.000000 -6.590563
v -1.523704 0.000000 -3.471312
v -6.323657 3.119251 -3.471312
v -6.323657 3.119251 -6.590563
v -1.523704 3.119251 -6.590563
v -1.523704 3.119251 -3.471312
v 6.147540 0.000000 1.597314
v 6.147540 0.000000 -3.615402
v 7.084610 0.000000 -3.615402
v 7.084610 0.000000 1.597314
v 6.147540 3.909478 1.597314
v 6.147540 3.909478 -3.615402
v 7.084610 3.909478 -3.615402
v 7.084610 3.909478 1.597314
v -8.155951 0.000000 -8.155951
v 8.155952 0.000000 -8.155951
v -8.155951 -0.000000 8.155952
v 8.155952 0.000000 8.155952
vn -1.000000 0.000000 0.000000
vn 0.000000 0.000000 -1.000000
vn 1.000000 0.000000 0.000000
vn 0.000000 0.000000 1.000000
vn 0.000000 -1.000000 0.000000
vn 0.000000 1.000000 0.000000
s off
f 5//1 6//1 1//1
f 6//2 7//2 2//2
f 7//3 8//3 3//3
f 8//4 5//4 4//4
f 1//5 2//5 4//5
f 8//6 7//6 5//6
f 13//1 14//1 9//1
f 14//2 15//2 10//2
f 15//3 16//3 11//3
f 16//4 13//4 12//4
f 9//5 10//5 12//5
f 16//6 15//6 13//6
f 21//1 22//1 17//1
f 22//2 23//2 18//2
f 23//3 24//3 19//3
f 24//4 21//4 20//4
f 17//5 18//5 20//5
f 24//6 23//6 21//6
f 29//1 30//1 25//1
f 30//2 31//2 26//2
f 31//3 32//3 27//3
f 32//4 29//4 28//4
f 25//5 26//5 28//5
f 32//6 31//6 29//6
f 37//1 38//1 33//1
f 38//2 39//2 34//2
f 39//3 40//3 35//3
f 40//4 37//4 36//4
f 33//5 34//5 36//5
f 40//6 39//6 37//6
f 45//1 46//1 41//1
f 46//2 47//2 42//2
f 47//3 48//3 43//3
f 48//4 45//4 44//4
f 41//5 42//5 44//5
f 48//6 47//6 45//6
f 53//1 54//1 49//1
f 54//2 55//2 50//2
f 55//3 56//3 51//3
f 56//4 53//4 52//4
f 49//5 50//5 52//5
f 56//6 55//6 53//6
f 61//1 62//1 57//1
f 62//2 63//2 58//2
f 63//3 64//3 59//3
f 64//4 61//4 60//4
f 57//5 58//5 60//5
f 64//6 63//6 61//6
f 69//1 70//1 65//1
f 70//2 71//2 66//2
f 71//3 72//3 67//3
f 72//4 69//4 68//4
f 65//5 66//5 68//5
f 72//6 71//6 69//6
f 77//1 78//1 73//1
f 78//2 79//2 74//2
f 79//3 80//3 75//3
f 80//4 77//4 76//4
f 73//5 74//5 76//5
f 80//6 79//6 77//6
f 82//6 81//6 84//6
f 6//1 2//1 1//1
f 7//2 3//2 2//2
f 8//3 4//3 3//3
f 5//4 1//4 4//4
f 2//5 3//5 4//5
f 7//6 6//6 5//6
f 14//1 10//1 9//1
f 15//2 11//2 10//2
f 16//3 12//3 11//3
f 13//4 9//4 12//4
f 10//5 11//5 12//5
f 15//6 14//6 13//6
f 22//1 18//1 17//1
f 23//2 19//2 18//2
f 24//3 20//3 19//3
f 21//4 17//4 20//4
f 18//5 19//5 20//5
f 23//6 22//6 21//6
f 30//1 26//1 25//1
f 31//2 27//2 26//2
f 32//3 28//3 27//3
f 29//4 25//4 28//4
f 26//5 27//5 28//5
f 31//6 30//6 29//6
f 38//1 34//1 33//1
f 39//2 35//2 34//2
f 40//3 36//3 35//3
f 37//4 33//4 36//4
f 34//5 35//5 36//5
f 39//6 38//6 37//6
f 46//1 42//1 41//1
f 47//2 43//2 42//2
f 48//3 44//3 43//3
f 45//4 41//4 44//4
f 42//5 43//5 44//5
f 47//6 46//6 45//6
f 54//1 50//1 49//1
f 55//2 51//2 50//2
f 56//3 52//3 51//3
f 53//4 49//4 52//4
f 50//5 51//5 52//5
f 55//6 54//6 53//6
f 62//1 58//1 57//1
f 63//2 59//2 58//2
f 64//3 60//3 59//3
f 61//4 57//4 60//4
f 58//5 59//5 60//5
f 63//6 62//6 61//6
f 70//1 66//1 65//1
f 71//2 67//2 66//2
f 72//3 68//3 67//3
f 69//4 65//4 68//4
f 66//5 67//5 68//5
f 71//6 70//6 69//6
f 78//1 74//1 73//1
f 79//2 75//2 74//2
f 80//3 76//3 75//3
f 77//4 73//4 76//4
f 74//5 75//5 76//5
f 79//6 78//6 77//6
f 81//6 83//6 84//6
